<!DOCTYPE svg PUBLIC "-//W3C//DTD SVG 1.1//EN" "http://www.w3.org/Graphics/SVG/1.1/DTD/svg11.dtd">
<!-- Uploaded to: SVG Repo, www.svgrepo.com, Transformed by: SVG Repo Mixer Tools -->
<svg fill="#000000" width="800px" height="800px" viewBox="-5.2 -5.2 62.40 62.40" data-name="Layer 1" xmlns="http://www.w3.org/2000/svg">
<g id="SVGRepo_bgCarrier" stroke-width="0">
<rect x="-5.2" y="-5.2" width="62.40" height="62.40" rx="31.2" fill="#ffffff" strokewidth="0"/>
</g>
<g id="SVGRepo_tracerCarrier" stroke-linecap="round" stroke-linejoin="round"/>
<g id="SVGRepo_iconCarrier">
<path d="M44,6.81a6,6,0,0,0-4.77,9.56l-5,8.82H33.6a6,6,0,0,0-3,.81l-6.35-4.67A5.9,5.9,0,0,0,24.4,20a6,6,0,1,0-10.73,3.67L8.52,33.2H8a5.94,5.94,0,0,0-3.69,1.25,6,6,0,1,0,8.41,1.08L17.89,26h.51a5.94,5.94,0,0,0,3-.8l6.35,4.67a5.9,5.9,0,0,0-.15,1.33,6,6,0,1,0,10.78-3.58l5-8.82H44a6,6,0,1,0,0-12Z" fill-rule="evenodd"/>
</g>
</svg>